<svg width="83" height="47" viewBox="0 0 83 47" fill="none" xmlns="http://www.w3.org/2000/svg">
<path d="M14.0673 12.1956H13.5262C12.6245 14.0592 11.7828 15.3818 10.8811 16.2835C10.0394 17.1853 8.83712 17.6061 7.39432 17.6061H6.49258V0.773471H9.19782V0.232422H0V0.773471H1.50291V17.6061H0V18.1471H14.0673V12.1956Z" fill="white"/>
<path d="M16.4118 17.7261H15.0291V18.2071H22.6038V17.7261H21.161V6.00342H14.9089V6.48435H16.4118V17.7261Z" fill="white"/>
<path d="M30.2386 17.7261H29.3368V10.6925C29.3368 9.67051 29.5172 8.82888 29.938 8.10748C30.2987 7.38608 30.7796 7.02538 31.2606 7.02538C31.4409 7.02538 31.5611 7.0855 31.6814 7.20574C31.9218 7.4462 32.0421 8.1676 32.0421 9.49016V17.7862H31.1403V18.2672H37.7531V17.7862H36.671V10.5723C36.671 9.55028 36.8514 8.70865 37.2121 8.04737C37.5728 7.38609 37.9936 7.02538 38.5346 7.02538C38.715 7.02538 38.8352 7.0855 38.9555 7.20574C39.1959 7.4462 39.3162 8.1676 39.3162 9.49016V17.7862H38.4144V18.2672H45.5082V17.7862H44.0654V10.0312C44.0654 7.20573 42.8029 5.76294 40.278 5.76294C38.3543 5.76294 37.0919 6.66469 36.4907 8.5283C36.0699 6.66469 34.9277 5.76294 33.0039 5.76294C31.0802 5.76294 29.8178 6.60457 29.2767 8.34795V6.00341H23.1448V6.48434H24.5275V17.7862H23.1448V18.2672H30.2386V17.7261Z" fill="white"/>
<path d="M28.5553 25.9021C26.2108 25.9021 24.4073 26.5033 23.0847 27.7056C21.8223 28.9079 21.161 30.6513 21.161 32.9357C21.161 35.16 21.7622 36.9034 22.9645 38.1057C24.1668 39.3081 25.9703 39.9092 28.3149 39.9092C33.1242 39.9092 35.4687 37.5046 35.4687 32.6953C35.4687 30.4108 34.8676 28.6675 33.7253 27.5854C32.6433 26.5033 30.8999 25.9021 28.5553 25.9021ZM30.0582 34.0779C30.0582 36.182 29.9981 37.5647 29.8178 38.1659C29.5773 39.0075 29.0964 39.4283 28.375 39.4283C27.7738 39.4283 27.353 39.1878 27.1727 38.767C27.0524 38.5266 26.9322 38.1659 26.812 37.745C26.6917 37.3242 26.6316 36.1219 26.6316 34.0178V31.7935C26.6316 30.0501 26.6917 28.7877 26.8721 27.9461C26.9923 27.405 27.1727 26.9842 27.4131 26.7437C27.6536 26.5033 28.0143 26.383 28.4351 26.383C29.1565 26.383 29.6374 26.8038 29.8178 27.6455C29.9981 28.4871 30.1184 29.8097 30.1184 31.6733V34.0779H30.0582Z" fill="white"/>
<path d="M51.7603 30.6513C51.7603 27.5252 50.3175 25.9021 47.3718 25.9021C46.1093 25.9021 45.1475 26.1426 44.5463 26.6836C43.9451 27.2247 43.4642 27.8859 43.1636 28.7877V26.2027H36.3705V26.6836H37.9335V39.1277H36.3705V39.6087H44.4261V39.1277H43.2237V31.3126C43.2237 30.1704 43.4642 29.2085 43.9451 28.427C44.4261 27.6455 44.9671 27.2247 45.5683 27.2247C45.9891 27.2247 46.2296 27.405 46.4099 27.7056C46.5902 28.0062 46.6504 28.7877 46.6504 29.8698V39.0676H45.5082V39.5485H53.5036V39.0676H51.9406V30.6513H51.7603Z" fill="white"/>
<path d="M11.2418 20.3713H12.8649V29.1483V29.8697V31.8536H11.2418V32.3345H12.8649V39.1276H11.2418V39.6687H20.0789V39.1276H18.3956V20.3713H20.0789V19.8904H11.2418V20.3713Z" fill="white"/>
<path d="M0.0601196 20.3713H1.74338V39.1276H0.0601196V39.6687H8.89724V39.1276H7.27409V29.8697V29.1483V20.3713H8.89724V19.8904H0.0601196V20.3713Z" fill="white"/>
<path d="M16.7124 4.1399C18.0951 3.7792 19.4176 3.35838 20.6801 2.63699C21.2211 2.27629 21.7622 1.85547 22.1229 1.31442C22.4234 0.953725 22.2431 0.653145 21.8824 0.593029C21.2812 0.532912 20.8003 0.172212 20.2592 0.0519795C19.2373 -0.12837 18.3956 0.172213 17.6141 0.773377C16.5921 1.49477 16.6523 2.6971 16.2314 3.65897C16.2314 4.01967 16.2916 4.26013 16.7124 4.1399Z" fill="white"/>
<path d="M57.5916 14.5401C56.9904 16.584 55.7279 17.606 53.7441 17.606C52.7221 17.606 51.9406 17.1852 51.5198 16.3436C51.3996 16.1632 51.3394 15.9829 51.2793 15.7424C50.9186 14.6002 50.9186 11.5342 50.9186 10.6926V10.5123V9.85099C50.9186 8.52843 51.0389 7.62668 51.2793 7.08563C51.5198 6.54458 51.8805 6.30412 52.3614 6.30412C52.8424 6.30412 53.1429 6.54458 53.3233 7.02551C53.5036 7.50645 53.5637 8.46831 53.5637 9.85099V10.873V11.1134V11.1736H52.3614V11.6545H53.5637H58.0725C58.2528 7.80703 56.3892 5.8833 52.5418 5.8833C50.6782 5.8833 49.1151 6.42435 47.8527 7.50645C46.6504 8.58854 45.9891 10.0915 45.9891 12.1354C45.9891 14.1794 46.5301 15.6823 47.6122 16.8245C48.6943 17.9667 50.3175 18.5078 52.5418 18.5078C54.225 18.5078 55.4875 18.1471 56.3291 17.4858C57.1707 16.8245 57.7719 15.8626 58.0725 14.6603H57.5916V14.5401Z" fill="white"/>
<path d="M66.7293 35.7011C66.0079 37.9254 64.6252 39.0676 62.461 39.0676C61.3188 39.0676 60.4772 38.5867 59.9962 37.6248C59.876 37.4445 59.8159 37.204 59.7558 36.9635C59.3951 35.7011 59.3349 32.2744 59.3349 31.3727V31.1322V30.4108C59.3349 28.968 59.4552 27.9461 59.6956 27.3449C59.9361 26.7437 60.3569 26.4431 60.898 26.4431C61.439 26.4431 61.7997 26.7437 61.9801 27.2848C62.1604 27.8258 62.2205 28.9079 62.2205 30.4108V31.553V31.7935V31.8536H60.898V32.3346H62.2205H67.2703C67.4507 28.0663 65.4067 25.9021 61.0783 25.9021C58.9742 25.9021 57.2309 26.5033 55.8482 27.7056C54.4655 28.9079 53.8042 30.5912 53.8042 32.8155C53.8042 35.0398 54.4054 36.7832 55.6077 38.0456C56.8101 39.3081 58.6737 39.9092 61.0783 39.9092C62.9419 39.9092 64.3246 39.5485 65.2865 38.767C66.1882 38.0456 66.8495 36.9635 67.2102 35.641H66.7293V35.7011Z" fill="white"/>
<path d="M73.4022 23.858C73.3421 23.7979 73.3421 23.7979 73.282 23.7378C73.3421 23.7979 73.4022 23.7979 73.4022 23.858Z" fill="white"/>
<path d="M82.5399 7.98737V7.44633H78.0913V7.98737H80.1352C80.0751 9.24982 79.9549 10.5123 79.7144 11.7146C78.9329 10.9932 77.6103 9.97122 75.6866 8.76889C74.7849 8.22784 74.1837 7.80702 73.823 7.56656C76.5884 6.6047 77.971 5.22202 77.971 3.41852C77.971 2.39654 77.5502 1.55491 76.7086 0.953749C75.867 0.352584 74.6045 0.052002 72.9213 0.052002C71.238 0.052002 69.7952 0.472816 68.653 1.31445C67.5108 2.15608 66.9697 3.35841 66.9697 4.98155C66.9697 6.60469 67.6911 8.10761 69.2541 9.43017C67.8114 9.73075 66.7894 10.2718 66.1281 10.9932C65.5269 11.7146 65.2263 12.6163 65.2263 13.7586C65.2263 15.4418 65.8876 16.6441 67.2102 17.4257C68.5328 18.2072 70.3362 18.5679 72.6207 18.5679C74.9051 18.5679 76.6485 17.8465 77.971 16.3436C78.8728 17.5459 79.3537 18.7482 79.3537 19.9505C79.3537 21.1529 79.1132 22.1147 78.6924 22.8963C78.2115 23.6778 77.6103 24.0986 76.7687 24.0986C76.5282 24.0986 76.3479 24.0385 76.1675 23.9784C75.7467 23.798 75.6265 23.3772 75.8068 22.7159H76.7086H77.0092C77.0693 22.5356 77.0693 22.3552 77.0693 22.1749C77.0693 21.6939 76.9491 21.2731 76.7086 20.9124C76.3479 20.4315 75.8068 20.0708 75.1456 19.9505C75.0253 19.9505 74.9051 19.9505 74.7849 19.9505H74.7248C73.8831 20.0107 73.1617 20.5517 72.801 21.2731C72.6808 21.5737 72.6808 21.8743 72.6808 22.235C72.6808 22.8361 72.9213 23.3772 73.4022 23.798C73.4623 23.8581 73.4623 23.8581 73.5224 23.9182C73.5825 23.9182 73.5825 23.9784 73.6427 23.9784C74.2438 24.4593 75.1456 24.6997 76.2277 24.6997C77.9109 24.6997 79.3537 23.9784 80.6763 22.5356C81.9988 21.0928 82.6 19.4095 82.6 17.606C82.6 16.4638 82.4197 15.5019 82.059 14.7805C81.6983 14.0591 81.1572 13.2175 80.3757 12.436C80.6763 11.1735 80.8566 9.73075 80.8566 8.10761H82.5399V7.98737ZM71.0576 1.1341C71.5386 0.713283 72.0796 0.532933 72.7409 0.532933C74.2438 0.532933 74.9652 1.55491 74.9652 3.53876C74.9652 4.56074 74.9051 5.34225 74.7248 5.8833C74.5444 6.42434 74.1236 6.84516 73.4022 7.26598C72.26 6.48446 71.4785 5.76306 71.0576 5.22202C70.6368 4.68097 70.4565 3.95957 70.4565 3.05782C70.3362 2.15608 70.5767 1.55491 71.0576 1.1341ZM73.1617 17.7864C71.779 17.7864 70.7571 17.4257 70.0958 16.7043C69.4345 15.9829 69.0738 14.7805 69.0738 13.0973C69.0738 11.414 69.194 10.3319 69.4345 9.79087C70.0958 10.392 71.6588 11.4741 74.1236 13.0973C75.5664 14.0591 76.6485 14.9609 77.43 15.7424C76.408 17.1251 74.9652 17.7864 73.1617 17.7864Z" fill="white"/>
<path d="M78.5722 26.2026V26.6836H80.4959L77.1895 36.0617L74.1236 26.6836H75.6265V26.2026H67.4507V26.6836H68.5929L73.4022 39.6086H75.867L75.2658 41.352C74.7248 42.915 74.1236 44.0572 73.5224 44.8387C72.9213 45.6203 72.26 45.9809 71.4785 45.9809C71.4184 45.9809 71.2981 45.9809 71.238 45.9809C70.9975 45.9208 70.7571 45.8006 70.697 45.5601C70.5767 45.2596 70.5767 44.8989 70.7571 44.478H71.7189H72.26C72.3201 44.2977 72.3201 44.0572 72.3201 43.8769C72.3201 42.4942 71.1779 41.352 69.7952 41.352C69.2542 41.352 68.7732 41.5323 68.3524 41.8329C67.9316 42.1335 67.5709 42.5543 67.3906 43.0954C67.3304 43.3358 67.2703 43.6364 67.2703 43.9971C67.2703 44.2977 67.3304 44.5382 67.3906 44.8387C67.3906 44.8989 67.4507 44.8989 67.4507 44.959C67.631 45.3197 67.8715 45.6203 68.2322 45.9208C68.8935 46.4018 69.7351 46.7024 70.8773 46.7024C71.9594 46.7024 72.9213 46.3417 73.7028 45.6203C74.4843 44.8989 75.1456 43.6965 75.8069 41.893L81.0971 26.6836H82.5399V26.2026H78.5722Z" fill="white"/>
</svg>
