<svg width="234" height="37" viewBox="0 0 234 37" fill="none" xmlns="http://www.w3.org/2000/svg">
<path d="M12.824 0.48V26.88H35.192V36H0.968V0.48H12.824ZM48.7411 0.48H37.7011V7.728H48.7411V0.48ZM48.7411 36H37.7011V9.12H48.7411V36ZM95.5509 8.976C98.1429 8.976 100.223 9.504 101.791 10.56C103.391 11.616 104.575 13.328 105.343 15.696C106.111 18.032 106.495 21.2 106.495 25.2V36H95.4549V25.344C95.4549 23.424 95.3269 21.792 95.0709 20.448C94.8469 19.104 94.3189 18 93.4869 17.136C92.6869 16.272 91.4869 15.84 89.8869 15.84C88.3189 15.84 87.1349 16.272 86.3349 17.136C85.5669 17.968 85.0549 19.04 84.7989 20.352C84.5749 21.632 84.4629 23.248 84.4629 25.2V36H73.4229V25.344C73.4229 23.392 73.3109 21.76 73.0869 20.448C72.8629 19.104 72.3509 18 71.5509 17.136C70.7509 16.272 69.5509 15.84 67.9509 15.84C66.2549 15.84 65.0069 16.272 64.2069 17.136C63.4069 18 62.8949 19.12 62.6709 20.496C62.4789 21.84 62.3829 23.648 62.3829 25.92V36H51.2949V9.84H61.1829L61.9989 12.96C63.2149 11.584 64.7669 10.576 66.6549 9.936C68.5749 9.296 70.8789 8.976 73.5669 8.976C75.9029 8.976 77.8229 9.408 79.3269 10.272C80.8309 11.136 81.9989 12.544 82.8309 14.496C83.9189 12.544 85.4869 11.136 87.5349 10.272C89.5829 9.408 92.2549 8.976 95.5509 8.976ZM145.047 24H119.463C119.687 26.016 120.439 27.68 121.719 28.992C123.031 30.272 124.807 30.912 127.047 30.912C128.871 30.912 130.487 30.48 131.895 29.616C133.335 28.72 134.055 27.36 134.055 25.536H145.047C145.047 29.248 143.447 32.08 140.247 34.032C137.079 35.984 132.663 36.96 126.999 36.96C123.511 36.96 120.343 36.368 117.495 35.184C114.647 34 112.391 32.336 110.727 30.192C109.063 28.016 108.231 25.536 108.231 22.752C108.231 19.936 109.047 17.456 110.679 15.312C112.343 13.136 114.599 11.472 117.447 10.32C120.327 9.136 123.511 8.544 126.999 8.544C130.583 8.544 133.719 9.12 136.407 10.272C139.127 11.424 141.239 13.056 142.743 15.168C144.247 17.248 145.015 19.696 145.047 22.512V22.752H145.143H145.047V24ZM126.999 14.4C124.887 14.4 123.271 14.848 122.151 15.744C121.031 16.64 120.263 17.888 119.847 19.488H133.767C133.415 17.888 132.711 16.64 131.655 15.744C130.599 14.848 129.047 14.4 126.999 14.4ZM167.752 2.4H169.528C171.256 2.4 172.216 2.928 173.32 4.848L191.032 35.184C191.32 35.664 191.128 36 190.648 36H186.952C186.52 36 186.28 35.856 186.136 35.568L181.864 28.224H155.848L151.624 35.568C151.432 35.856 151.24 36 150.808 36H147.016C146.536 36 146.344 35.664 146.632 35.184L164.296 4.848C165.4 2.928 166.36 2.4 167.752 2.4ZM168.136 7.056L157.96 24.624H179.752L169.576 7.056C169.384 6.768 169.24 6.72 169 6.72H168.712C168.424 6.72 168.28 6.768 168.136 7.056ZM196.832 2.4H222.08C229.232 2.4 232.064 5.76 232.064 12.144V14.64C232.064 20.352 229.808 23.616 224.192 24.24L233.36 35.136C233.6 35.424 233.504 36 232.928 36H229.136C228.608 36 228.368 35.856 228.176 35.568L219.344 24.624H200V35.328C200 35.76 199.76 36 199.328 36H196.064C195.632 36 195.392 35.76 195.392 35.328V3.84C195.392 2.88 195.872 2.4 196.832 2.4ZM200 7.104V20.88H221.264C225.776 20.88 227.456 18.816 227.456 14.736V12.72C227.456 8.64 225.776 6.576 221.264 6.576H200.528C200.144 6.576 200 6.72 200 7.104Z" fill="white"/>
</svg>
